name 900006_2.mot
datacolumns 141
datarows 4
range 1.50833333 1.53333330
endheader

                time	           pelvis_tx	           pelvis_ty	           pelvis_tz	         pelvis_tilt	         pelvis_list	     pelvis_rotation	       hip_flexion_r	     hip_adduction_r	      hip_rotation_r	        knee_angle_r	       ankle_angle_r	    subtalar_angle_r	         mtp_angle_r	       hip_flexion_l	     hip_adduction_l	      hip_rotation_l	        knee_angle_l	       ankle_angle_l	    subtalar_angle_l	         mtp_angle_l	    lumbar_extension	      lumbar_bending	     lumbar_rotation	    ground_marker_px	    ground_marker_py	    ground_marker_pz	    ground_marker_px	    ground_marker_py	    ground_marker_pz	    ground_marker_px	    ground_marker_py	    ground_marker_pz	    ground_marker_px	    ground_marker_py	    ground_marker_pz	    ground_marker_px	    ground_marker_py	    ground_marker_pz	    ground_marker_px	    ground_marker_py	    ground_marker_pz	    ground_marker_px	    ground_marker_py	    ground_marker_pz	    ground_marker_px	    ground_marker_py	    ground_marker_pz	    ground_marker_px	    ground_marker_py	    ground_marker_pz	    ground_marker_px	    ground_marker_py	    ground_marker_pz	    ground_marker_px	    ground_marker_py	    ground_marker_pz	    ground_marker_px	    ground_marker_py	    ground_marker_pz	    ground_marker_px	    ground_marker_py	    ground_marker_pz	    ground_marker_px	    ground_marker_py	    ground_marker_pz	    ground_marker_px	    ground_marker_py	    ground_marker_pz	    ground_marker_px	    ground_marker_py	    ground_marker_pz	    ground_marker_px	    ground_marker_py	    ground_marker_pz	    ground_marker_px	    ground_marker_py	    ground_marker_pz	    ground_marker_px	    ground_marker_py	    ground_marker_pz	    ground_marker_px	    ground_marker_py	    ground_marker_pz	    ground_marker_px	    ground_marker_py	    ground_marker_pz	    ground_marker_px	    ground_marker_py	    ground_marker_pz	    ground_marker_px	    ground_marker_py	    ground_marker_pz	    ground_marker_px	    ground_marker_py	    ground_marker_pz	    ground_marker_px	    ground_marker_py	    ground_marker_pz	    ground_marker_px	    ground_marker_py	    ground_marker_pz	    ground_marker_px	    ground_marker_py	    ground_marker_pz	    ground_marker_px	    ground_marker_py	    ground_marker_pz	    ground_marker_px	    ground_marker_py	    ground_marker_pz	    ground_marker_px	    ground_marker_py	    ground_marker_pz	    ground_marker_px	    ground_marker_py	    ground_marker_pz	    ground_marker_px	    ground_marker_py	    ground_marker_pz	    ground_marker_px	    ground_marker_py	    ground_marker_pz	    ground_marker_px	    ground_marker_py	    ground_marker_pz	    ground_marker_px	    ground_marker_py	    ground_marker_pz	    ground_marker_px	    ground_marker_py	    ground_marker_pz	    ground_marker_px	    ground_marker_py	    ground_marker_pz	    ground_marker_px	    ground_marker_py	    ground_marker_pz	    ground_marker_px	    ground_marker_py	    ground_marker_pz	
          1.50833333	          0.82713938	          0.84649950	         -0.25609589	          5.14364672	          0.89593971	          6.31575060	         -6.91594267	         -4.26409292	         -5.27755213	         -4.56763601	          5.71008062	          0.00000000	          0.00000000	         -6.94346952	          0.90322268	          1.08974874	         -2.00975108	          3.49683118	          0.00000000	          0.00000000	         -4.88378525	         -0.55713379	          0.23468922	          0.75733018	          0.76266950	         -0.25096345	          0.76484996	          0.76066899	         -0.18135816	          0.74981040	          0.76467001	         -0.32056874	          0.75698477	          0.42444536	         -0.16497995	          0.73936379	          0.41903862	         -0.32388890	          0.71962118	          0.06497311	         -0.15771943	          0.71593845	          0.06576492	         -0.33034873	          0.82713938	          0.84649950	         -0.25609589	          0.83908075	          0.84332269	         -0.14556304	          0.81519806	          0.84967631	         -0.36662871	          0.64964354	          0.86798102	         -0.20485282	          0.64465010	          0.86753142	         -0.25836602	          0.75797564	          0.42717081	         -0.10855442	          0.73438329	          0.41972491	         -0.37966275	          0.73851031	          0.41832682	         -0.22060075	          0.74918872	          0.42333141	         -0.26431540	          0.71358126	          0.06634790	         -0.12073459	          0.70346171	          0.06721889	         -0.36461923	          0.71897501	          0.06116469	         -0.19125399	          0.71750885	          0.06539463	         -0.29677027	          0.67457289	          0.05129333	         -0.14880437	          0.66968453	          0.04705559	         -0.30856070	          0.79333949	          1.19625044	         -0.25931123	          0.80481488	          1.09497094	         -0.26496387	          0.68606687	          1.26212764	         -0.23841876	          0.80257303	          1.19564855	         -0.20268413	          0.79051715	          1.19768286	         -0.31028584	          0.80626386	          0.04816426	         -0.14473329	          0.80412406	          0.04472365	         -0.35097960	          0.89050251	          0.55595154	         -0.15406038	          0.85806650	          0.57349420	         -0.39610764	          0.84173155	          0.59999645	         -0.11887468	          0.84429812	          0.61423236	         -0.32686290	          0.82583702	          0.54399872	         -0.11719272	          0.83201510	          0.55763495	         -0.32177892	          0.84651732	          0.18089473	         -0.13637404	          0.69433177	          0.17402181	         -0.45005727	          0.76918745	          0.16643289	         -0.15024976	          0.70732284	          0.16196531	         -0.37226975	
          1.51666665	          0.82706714	          0.84654045	         -0.25612572	          5.13949108	          0.90108913	          6.31234503	         -6.89250565	         -4.27081490	         -5.28639555	         -4.61398792	          5.73515320	          0.00000000	          0.00000000	         -6.92323589	          0.91969121	          1.05418003	         -2.02656031	          3.49584746	          0.00000000	          0.00000000	         -4.91690254	         -0.51447821	          0.29387581	          0.75725138	          0.76271510	         -0.25100505	          0.76476616	          0.76070833	         -0.18139941	          0.74973661	          0.76472193	         -0.32061070	          0.75701511	          0.42444727	         -0.16502330	          0.73939633	          0.41906872	         -0.32387453	          0.71948749	          0.06499625	         -0.15769738	          0.71596384	          0.06578887	         -0.33038381	          0.82706714	          0.84654045	         -0.25612572	          0.83899570	          0.84335494	         -0.14563721	          0.81513864	          0.84972590	         -0.36661422	          0.64952266	          0.86808676	         -0.20480074	          0.64459193	          0.86753196	         -0.25836867	          0.75799203	          0.42717272	         -0.10859752	          0.73438507	          0.41974527	         -0.37964576	          0.73917317	          0.41674507	         -0.21874297	          0.74964839	          0.42292598	         -0.26466337	          0.71343809	          0.06638156	         -0.12071446	          0.70346844	          0.06724898	         -0.36464721	          0.71906501	          0.06108687	         -0.19123508	          0.71745610	          0.06546101	         -0.29678357	          0.67212629	          0.05258528	         -0.14922041	          0.66969299	          0.04699577	         -0.30850124	          0.79322827	          1.19626892	         -0.25931233	          0.80446637	          1.09491658	         -0.26509443	          0.68592232	          1.26225626	         -0.23848760	          0.80244839	          1.19555295	         -0.20260198	          0.79025507	          1.19768202	         -0.31047726	          0.80629343	          0.04815743	         -0.14470798	          0.80410361	          0.04471394	         -0.35102922	          0.89051211	          0.55598485	         -0.15405504	          0.85804296	          0.57352018	         -0.39614046	          0.84164077	          0.59988767	         -0.11897584	          0.84414983	          0.61417866	         -0.32681209	          0.82615650	          0.54385734	         -0.11677369	          0.83208263	          0.55767292	         -0.32184491	          0.84650046	          0.18088260	         -0.13640380	          0.69432312	          0.17399816	         -0.45006990	          0.76930887	          0.16654594	         -0.15045124	          0.70724112	          0.16196613	         -0.37234339	
          1.52499998	          0.82701427	          0.84658229	         -0.25614175	          5.13707066	          0.90626794	          6.30814219	         -6.87626743	         -4.27320433	         -5.28964949	         -4.67021322	          5.77668428	          0.00000000	          0.00000000	         -6.91242838	          0.92848897	          1.04057467	         -2.03421164	          3.49305177	          0.00000000	          0.00000000	         -4.92669201	         -0.58918768	          0.42988250	          0.75719446	          0.76275969	         -0.25103369	          0.76470333	          0.76074690	         -0.18142758	          0.74968559	          0.76477242	         -0.32063979	          0.75703186	          0.42445648	         -0.16507441	          0.73940003	          0.41908100	         -0.32388711	          0.71924222	          0.06505210	         -0.15765989	          0.71597326	          0.06580640	         -0.33041969	          0.82701427	          0.84658229	         -0.25614175	          0.83892912	          0.84338850	         -0.14569254	          0.81509942	          0.84977615	         -0.36659095	          0.64940000	          0.86818868	         -0.20473982	          0.64452994	          0.86753267	         -0.25835702	          0.75799972	          0.42717829	         -0.10864831	          0.73438013	          0.41975424	         -0.37965760	          0.74011999	          0.41597167	         -0.21829796	          0.74993330	          0.42287219	         -0.26469466	          0.71318674	          0.06645173	         -0.12067850	          0.70347267	          0.06726890	         -0.36468112	          0.71902150	          0.06101023	         -0.19119667	          0.71746087	          0.06544452	         -0.29681703	          0.67097187	          0.05316549	         -0.14937882	          0.66991007	          0.04697739	         -0.30854139	          0.79312235	          1.19627929	         -0.25932667	          0.80419171	          1.09481084	         -0.26503780	          0.68576646	          1.26234722	         -0.23850869	          0.80241567	          1.19553304	         -0.20262885	          0.78996539	          1.19752836	         -0.31057739	          0.80631191	          0.04816050	         -0.14470553	          0.80409205	          0.04469217	         -0.35110989	          0.89054096	          0.55603743	         -0.15406558	          0.85800469	          0.57354420	         -0.39619708	          0.84156549	          0.59993356	         -0.11897131	          0.84419614	          0.61426169	         -0.32684308	          0.82636505	          0.54380751	         -0.11662257	          0.83217454	          0.55770916	         -0.32189569	          0.84647506	          0.18085021	         -0.13645019	          0.69431877	          0.17397089	         -0.45008191	          0.76930654	          0.16666484	         -0.15068527	          0.70724303	          0.16195805	         -0.37234512	
          1.53333330	          0.82696629	          0.84661722	         -0.25612909	          5.13815022	          0.91135818	          6.30241108	         -6.86933756	         -4.27286196	         -5.28010654	         -4.70142651	          5.80029058	          0.00000000	          0.00000000	         -6.91470623	          0.92659086	          1.06060672	         -2.03132463	          3.48990417	          0.00000000	          0.00000000	         -4.88959980	         -0.71713513	          0.42016035	          0.75714737	          0.76279294	         -0.25103509	          0.76464862	          0.76077497	         -0.18142830	          0.74964613	          0.76481086	         -0.32064188	          0.75702107	          0.42447171	         -0.16510752	          0.73935038	          0.41906735	         -0.32392707	          0.71908361	          0.06508406	         -0.15762968	          0.71594179	          0.06582059	         -0.33044079	          0.82696629	          0.84661722	         -0.25612909	          0.83886749	          0.84341562	         -0.14569348	          0.81506515	          0.84981877	         -0.36656466	          0.64928067	          0.86826581	         -0.20467892	          0.64446408	          0.86752367	         -0.25833094	          0.75799149	          0.42718807	         -0.10868119	          0.73435616	          0.41974604	         -0.37969980	          0.74104661	          0.41542932	         -0.21795508	          0.74988502	          0.42315182	         -0.26440680	          0.71303022	          0.06649253	         -0.12064830	          0.70345658	          0.06727982	         -0.36470801	          0.71890980	          0.06098945	         -0.19116269	          0.71748412	          0.06544401	         -0.29685009	          0.67097515	          0.05318088	         -0.14938092	          0.67001301	          0.04695698	         -0.30862001	          0.79301703	          1.19628382	         -0.25934044	          0.80430973	          1.09484696	         -0.26486313	          0.68558425	          1.26231384	         -0.23852888	          0.80237371	          1.19569194	         -0.20264234	          0.78995365	          1.19745278	         -0.31062996	          0.80630815	          0.04816782	         -0.14472102	          0.80410177	          0.04467500	         -0.35118207	          0.89058822	          0.55610114	         -0.15408526	          0.85796064	          0.57357568	         -0.39624998	          0.84156150	          0.59996134	         -0.11888611	          0.84435403	          0.61435485	         -0.32690614	          0.82674611	          0.54388416	         -0.11649770	          0.83223158	          0.55777526	         -0.32188687	          0.84644836	          0.18081348	         -0.13649692	          0.69431692	          0.17394772	         -0.45009002	          0.76929277	          0.16665040	         -0.15073678	          0.70727319	          0.16191971	         -0.37239701	
